# Blender 3.4.1
# www.blender.org
mtllib collision.mtl
o Cube.001
v -48.912586 12.371382 -43.433842
v 49.081635 12.371369 -30.988668
v 49.081635 12.371382 -43.433842
v -48.912586 -0.073810 -30.988674
v 49.081635 -0.073810 -30.988674
v -48.912586 12.371369 -30.988668
v -48.912586 -0.073798 -43.433853
v 49.081635 -0.073798 -43.433853
vn -0.0000 1.0000 -0.0000
vn -0.0000 -0.0000 1.0000
vn -1.0000 -0.0000 -0.0000
vn -0.0000 -1.0000 -0.0000
vn 1.0000 -0.0000 -0.0000
vn -0.0000 -0.0000 -1.0000
vt 0.625000 0.000000
vt 0.625000 0.750000
vt 0.875000 0.500000
vt 0.375000 0.250000
vt 0.625000 0.250000
vt 0.375000 0.750000
vt 0.375000 0.000000
vt 0.375000 0.500000
vt 0.875000 0.750000
vt 0.375000 0.500000
vt 0.375000 1.000000
vt 0.375000 0.250000
vt 0.625000 1.000000
vt 0.125000 0.750000
vt 0.625000 0.250000
vt 0.625000 0.500000
vt 0.625000 0.500000
vt 0.375000 0.750000
vt 0.125000 0.500000
vt 0.625000 0.750000
s 1
usemtl Material.001
f 1/1/1 2/4/1 3/7/1
f 2/5/2 4/10/2 5/12/2
f 6/16/3 7/18/3 4/10/3
f 8/20/4 4/11/4 7/18/4
f 3/8/5 5/14/5 8/19/5
f 1/3/6 8/20/6 7/17/6
f 1/1/1 6/15/1 2/4/1
f 2/5/2 6/16/2 4/10/2
f 6/16/3 1/2/3 7/18/3
f 8/20/4 5/13/4 4/11/4
f 3/8/5 2/6/5 5/14/5
f 1/3/6 3/9/6 8/20/6
o Cube.002
v 30.808334 12.296703 -49.983768
v 43.253513 12.296642 49.108692
v 43.253513 12.296703 -49.983768
v 30.808334 -0.148539 49.108681
v 43.253513 -0.148539 49.108681
v 30.808334 12.296642 49.108692
v 30.808334 -0.148478 -49.983780
v 43.253513 -0.148478 -49.983780
vn -0.0000 1.0000 -0.0000
vn -0.0000 -0.0000 1.0000
vn -1.0000 -0.0000 -0.0000
vn -0.0000 -1.0000 -0.0000
vn 1.0000 -0.0000 -0.0000
vn -0.0000 -0.0000 -1.0000
vt 0.625000 0.000000
vt 0.625000 0.750000
vt 0.875000 0.500000
vt 0.375000 0.250000
vt 0.625000 0.250000
vt 0.375000 0.750000
vt 0.375000 0.000000
vt 0.375000 0.500000
vt 0.875000 0.750000
vt 0.375000 0.500000
vt 0.375000 1.000000
vt 0.375000 0.250000
vt 0.625000 1.000000
vt 0.125000 0.750000
vt 0.625000 0.250000
vt 0.625000 0.500000
vt 0.625000 0.500000
vt 0.375000 0.750000
vt 0.125000 0.500000
vt 0.625000 0.750000
s 1
usemtl Material.002
f 9/21/7 10/24/7 11/27/7
f 10/25/8 12/30/8 13/32/8
f 14/36/9 15/38/9 12/30/9
f 16/40/10 12/31/10 15/38/10
f 11/28/11 13/34/11 16/39/11
f 9/23/12 16/40/12 15/37/12
f 9/21/7 14/35/7 10/24/7
f 10/25/8 14/36/8 12/30/8
f 14/36/9 9/22/9 15/38/9
f 16/40/10 13/33/10 12/31/10
f 11/28/11 10/26/11 13/34/11
f 9/23/12 11/29/12 16/40/12
o Cube.003
v -49.198185 12.445166 31.355494
v 49.198185 12.445160 43.800678
v 49.198185 12.445166 31.355494
v -49.198185 -0.000021 43.800667
v 49.198185 -0.000021 43.800667
v -49.198185 12.445160 43.800678
v -49.198185 -0.000015 31.355488
v 49.198185 -0.000015 31.355488
vn -0.0000 1.0000 -0.0000
vn -0.0000 -0.0000 1.0000
vn -1.0000 -0.0000 -0.0000
vn -0.0000 -1.0000 -0.0000
vn 1.0000 -0.0000 -0.0000
vn -0.0000 -0.0000 -1.0000
vt 0.625000 0.000000
vt 0.625000 0.750000
vt 0.875000 0.500000
vt 0.375000 0.250000
vt 0.625000 0.250000
vt 0.375000 0.750000
vt 0.375000 0.000000
vt 0.375000 0.500000
vt 0.875000 0.750000
vt 0.375000 0.500000
vt 0.375000 1.000000
vt 0.375000 0.250000
vt 0.625000 1.000000
vt 0.125000 0.750000
vt 0.625000 0.250000
vt 0.625000 0.500000
vt 0.625000 0.500000
vt 0.375000 0.750000
vt 0.125000 0.500000
vt 0.625000 0.750000
s 1
usemtl Material.003
f 17/41/13 18/44/13 19/47/13
f 18/45/14 20/50/14 21/52/14
f 22/56/15 23/58/15 20/50/15
f 24/60/16 20/51/16 23/58/16
f 19/48/17 21/54/17 24/59/17
f 17/43/18 24/60/18 23/57/18
f 17/41/13 22/55/13 18/44/13
f 18/45/14 22/56/14 20/50/14
f 22/56/15 17/42/15 23/58/15
f 24/60/16 21/53/16 20/51/16
f 19/48/17 18/46/17 21/54/17
f 17/43/18 19/49/18 24/60/18
o Cube.004
v -43.607704 12.445209 -49.566334
v -31.162525 12.445151 49.566364
v -31.162525 12.445209 -49.566334
v -43.607704 -0.000030 49.566353
v -31.162525 -0.000030 49.566353
v -43.607704 12.445151 49.566364
v -43.607704 0.000030 -49.566353
v -31.162525 0.000030 -49.566353
vn -0.0000 1.0000 -0.0000
vn -0.0000 -0.0000 1.0000
vn -1.0000 -0.0000 -0.0000
vn -0.0000 -1.0000 -0.0000
vn 1.0000 -0.0000 -0.0000
vn -0.0000 -0.0000 -1.0000
vt 0.625000 0.000000
vt 0.625000 0.750000
vt 0.875000 0.500000
vt 0.375000 0.250000
vt 0.625000 0.250000
vt 0.375000 0.750000
vt 0.375000 0.000000
vt 0.375000 0.500000
vt 0.875000 0.750000
vt 0.375000 0.500000
vt 0.375000 1.000000
vt 0.375000 0.250000
vt 0.625000 1.000000
vt 0.125000 0.750000
vt 0.625000 0.250000
vt 0.625000 0.500000
vt 0.625000 0.500000
vt 0.375000 0.750000
vt 0.125000 0.500000
vt 0.625000 0.750000
s 1
usemtl Material.004
f 25/61/19 26/64/19 27/67/19
f 26/65/20 28/70/20 29/72/20
f 30/76/21 31/78/21 28/70/21
f 32/80/22 28/71/22 31/78/22
f 27/68/23 29/74/23 32/79/23
f 25/63/24 32/80/24 31/77/24
f 25/61/19 30/75/19 26/64/19
f 26/65/20 30/76/20 28/70/20
f 30/76/21 25/62/21 31/78/21
f 32/80/22 29/73/22 28/71/22
f 27/68/23 26/66/23 29/74/23
f 25/63/24 27/69/24 32/80/24
o Plane
v 49.458450 0.699970 49.458450
v -49.458450 0.700030 -49.458450
v -49.458450 0.699970 49.458450
v 49.458450 0.700030 -49.458450
vn -0.0000 1.0000 -0.0000
vt 1.000000 0.000000
vt 0.000000 1.000000
vt 0.000000 0.000000
vt 1.000000 1.000000
s 1
usemtl None
f 33/81/25 34/82/25 35/83/25
f 33/81/25 36/84/25 34/82/25
o Plane.001
v 49.458450 0.399970 49.458450
v -49.458450 0.400030 -49.458450
v -49.458450 0.399970 49.458450
v 49.458450 0.400030 -49.458450
vn -0.0000 1.0000 -0.0000
vt 1.000000 0.000000
vt 0.000000 1.000000
vt 0.000000 0.000000
vt 1.000000 1.000000
s 1
usemtl None
f 37/85/26 38/86/26 39/87/26
f 37/85/26 40/88/26 38/86/26
