# Blender v3.4.1 OBJ File: ''
# www.blender.org
mtllib collision.mtl
o Cube.004
v -43.607704 12.445201 -49.566338
v -31.162525 12.445159 49.566360
v -31.162525 12.445201 -49.566338
v -43.607704 -0.000022 49.566353
v -31.162525 -0.000022 49.566353
v -43.607704 12.445159 49.566360
v -43.607704 0.000022 -49.566353
v -31.162525 0.000022 -49.566353
vt 0.625000 0.000000
vt 0.375000 0.250000
vt 0.375000 0.000000
vt 0.625000 0.250000
vt 0.375000 0.500000
vt 0.375000 0.250000
vt 0.625000 0.500000
vt 0.375000 0.750000
vt 0.625000 0.750000
vt 0.375000 1.000000
vt 0.375000 0.500000
vt 0.125000 0.750000
vt 0.125000 0.500000
vt 0.875000 0.500000
vt 0.625000 0.500000
vt 0.625000 0.250000
vt 0.625000 0.750000
vt 0.625000 1.000000
vt 0.375000 0.750000
vt 0.875000 0.750000
vn 0.0000 1.0000 0.0000
vn 0.0000 -0.0000 1.0000
vn -1.0000 0.0000 0.0000
vn 0.0000 -1.0000 -0.0000
vn 1.0000 0.0000 0.0000
vn 0.0000 0.0000 -1.0000
usemtl Material.004
s 1
f 1/1/1 2/2/1 3/3/1
f 2/4/2 4/5/2 5/6/2
f 6/7/3 7/8/3 4/5/3
f 8/9/4 4/10/4 7/8/4
f 3/11/5 5/12/5 8/13/5
f 1/14/6 8/9/6 7/15/6
f 1/1/1 6/16/1 2/2/1
f 2/4/2 6/7/2 4/5/2
f 6/7/3 1/17/3 7/8/3
f 8/9/4 5/18/4 4/10/4
f 3/11/5 2/19/5 5/12/5
f 1/14/6 3/20/6 8/9/6
o Cube.003
v -49.198185 12.445170 31.355492
v 49.198185 12.445167 43.800674
v 49.198185 12.445170 31.355492
v -49.198185 -0.000014 43.800667
v 49.198185 -0.000014 43.800667
v -49.198185 12.445167 43.800674
v -49.198185 -0.000010 31.355488
v 49.198185 -0.000010 31.355488
vt 0.625000 0.000000
vt 0.375000 0.250000
vt 0.375000 0.000000
vt 0.625000 0.250000
vt 0.375000 0.500000
vt 0.375000 0.250000
vt 0.625000 0.500000
vt 0.375000 0.750000
vt 0.625000 0.750000
vt 0.375000 1.000000
vt 0.375000 0.500000
vt 0.125000 0.750000
vt 0.125000 0.500000
vt 0.875000 0.500000
vt 0.625000 0.500000
vt 0.625000 0.250000
vt 0.625000 0.750000
vt 0.625000 1.000000
vt 0.375000 0.750000
vt 0.875000 0.750000
vn 0.0000 1.0000 0.0000
vn 0.0000 -0.0000 1.0000
vn -1.0000 -0.0000 0.0000
vn 0.0000 -1.0000 -0.0000
vn 1.0000 0.0000 0.0000
vn 0.0000 0.0000 -1.0000
usemtl Material.003
s 1
f 9/21/7 10/22/7 11/23/7
f 10/24/8 12/25/8 13/26/8
f 14/27/9 15/28/9 12/25/9
f 16/29/10 12/30/10 15/28/10
f 11/31/11 13/32/11 16/33/11
f 9/34/12 16/29/12 15/35/12
f 9/21/7 14/36/7 10/22/7
f 10/24/8 14/27/8 12/25/8
f 14/27/9 9/37/9 15/28/9
f 16/29/10 13/38/10 12/30/10
f 11/31/11 10/39/11 13/32/11
f 9/34/12 11/40/12 16/29/12
o Cube.002
v 30.808334 12.296695 -49.983772
v 43.253513 12.296650 49.108688
v 43.253513 12.296695 -49.983772
v 30.808334 -0.148531 49.108681
v 43.253513 -0.148531 49.108681
v 30.808334 12.296650 49.108688
v 30.808334 -0.148486 -49.983780
v 43.253513 -0.148486 -49.983780
vt 0.625000 0.000000
vt 0.375000 0.250000
vt 0.375000 0.000000
vt 0.625000 0.250000
vt 0.375000 0.500000
vt 0.375000 0.250000
vt 0.625000 0.500000
vt 0.375000 0.750000
vt 0.625000 0.750000
vt 0.375000 1.000000
vt 0.375000 0.500000
vt 0.125000 0.750000
vt 0.125000 0.500000
vt 0.875000 0.500000
vt 0.625000 0.500000
vt 0.625000 0.250000
vt 0.625000 0.750000
vt 0.625000 1.000000
vt 0.375000 0.750000
vt 0.875000 0.750000
vn 0.0000 1.0000 0.0000
vn 0.0000 -0.0000 1.0000
vn -1.0000 -0.0000 0.0000
vn 0.0000 -1.0000 -0.0000
vn 1.0000 -0.0000 0.0000
vn 0.0000 0.0000 -1.0000
usemtl Material.002
s 1
f 17/41/13 18/42/13 19/43/13
f 18/44/14 20/45/14 21/46/14
f 22/47/15 23/48/15 20/45/15
f 24/49/16 20/50/16 23/48/16
f 19/51/17 21/52/17 24/53/17
f 17/54/18 24/49/18 23/55/18
f 17/41/13 22/56/13 18/42/13
f 18/44/14 22/47/14 20/45/14
f 22/47/15 17/57/15 23/48/15
f 24/49/16 21/58/16 20/50/16
f 19/51/17 18/59/17 21/52/17
f 17/54/18 19/60/18 24/49/18
o Cube.001
v -48.912586 12.371375 -43.433846
v 49.081635 12.371365 -30.988670
v 49.081635 12.371375 -43.433846
v -48.912586 -0.073815 -30.988674
v 49.081635 -0.073815 -30.988674
v -48.912586 12.371365 -30.988670
v -48.912586 -0.073805 -43.433853
v 49.081635 -0.073805 -43.433853
vt 0.625000 0.000000
vt 0.375000 0.250000
vt 0.375000 0.000000
vt 0.625000 0.250000
vt 0.375000 0.500000
vt 0.375000 0.250000
vt 0.625000 0.500000
vt 0.375000 0.750000
vt 0.625000 0.750000
vt 0.375000 1.000000
vt 0.375000 0.500000
vt 0.125000 0.750000
vt 0.125000 0.500000
vt 0.875000 0.500000
vt 0.625000 0.500000
vt 0.625000 0.250000
vt 0.625000 0.750000
vt 0.625000 1.000000
vt 0.375000 0.750000
vt 0.875000 0.750000
vn 0.0000 1.0000 0.0000
vn 0.0000 -0.0000 1.0000
vn -1.0000 -0.0000 0.0000
vn 0.0000 -1.0000 -0.0000
vn 1.0000 0.0000 0.0000
vn 0.0000 0.0000 -1.0000
usemtl Material.001
s 1
f 25/61/19 26/62/19 27/63/19
f 26/64/20 28/65/20 29/66/20
f 30/67/21 31/68/21 28/65/21
f 32/69/22 28/70/22 31/68/22
f 27/71/23 29/72/23 32/73/23
f 25/74/24 32/69/24 31/75/24
f 25/61/19 30/76/19 26/62/19
f 26/64/20 30/67/20 28/65/20
f 30/67/21 25/77/21 31/68/21
f 32/69/22 29/78/22 28/70/22
f 27/71/23 26/79/23 29/72/23
f 25/74/24 27/80/24 32/69/24
o Plane
v 49.458450 -0.000022 49.458450
v -49.458450 0.000022 -49.458450
v -49.458450 -0.000022 49.458450
v 49.458450 0.000022 -49.458450
vt 1.000000 0.000000
vt 0.000000 1.000000
vt 0.000000 0.000000
vt 1.000000 1.000000
vn 0.0000 1.0000 0.0000
usemtl None
s 1
f 33/81/25 34/82/25 35/83/25
f 33/81/25 36/84/25 34/82/25
o Plane.001
v 49.458450 -0.200022 49.458450
v -49.458450 -0.199978 -49.458450
v -49.458450 -0.200022 49.458450
v 49.458450 -0.199978 -49.458450
vt 1.000000 0.000000
vt 0.000000 1.000000
vt 0.000000 0.000000
vt 1.000000 1.000000
vn 0.0000 1.0000 0.0000
usemtl None
s 1
f 37/85/26 38/86/26 39/87/26
f 37/85/26 40/88/26 38/86/26
